<?xml version="1.0" standalone="no"?><!DOCTYPE svg PUBLIC "-//W3C//DTD SVG 1.1//EN" "http://www.w3.org/Graphics/SVG/1.1/DTD/svg11.dtd"><svg t="1614869517279" class="icon" viewBox="0 0 1024 1024" version="1.1" xmlns="http://www.w3.org/2000/svg" p-id="2857" xmlns:xlink="http://www.w3.org/1999/xlink" width="128" height="128"><defs><style type="text/css">@font-face { font-family: element-icons; src: url("chrome-extension://moombeodfomdpjnpocobemoiaemednkg/fonts/element-icons.woff") format("woff"), url("chrome-extension://moombeodfomdpjnpocobemoiaemednkg/fonts/element-icons.ttf ") format("truetype"); }
</style></defs><path d="M512 0C229.76 0 0 229.76 0 512s229.76 512 512 512 512-229.76 512-512S794.24 0 512 0z m167.68 336h23.04c24.96 0 44.8 19.84 44.8 44.8s-19.84 44.8-44.8 44.8h-22.4c-21.12 84.48-97.28 147.2-187.52 147.2h-62.72l224 224c17.28 17.28 17.28 46.08 0 63.36-8.96 8.96-20.48 12.8-32 12.8-11.52 0-23.04-4.48-32-12.8l-300.8-300.8c-12.8-12.8-16.64-32-9.6-48.64 7.04-16.64 23.04-27.52 41.6-27.52H492.8c40.32 0 75.52-23.68 92.16-58.24H321.92c-24.96 0-44.8-19.84-44.8-44.8s19.84-44.8 44.8-44.8h263.04c-16.64-33.92-51.84-57.6-92.16-57.6H321.92c-24.96 0-44.8-19.84-44.8-44.8s19.84-44.8 44.8-44.8H702.08c24.96 0 44.8 19.84 44.8 44.8s-19.84 44.8-44.8 44.8h-47.36c11.52 17.92 19.84 37.76 24.96 58.24z" p-id="2858" fill="#e0620d"></path></svg>