<?xml version="1.0" standalone="no"?><!DOCTYPE svg PUBLIC "-//W3C//DTD SVG 1.1//EN" "http://www.w3.org/Graphics/SVG/1.1/DTD/svg11.dtd"><svg t="1615794637360" class="icon" viewBox="0 0 1024 1024" version="1.1" xmlns="http://www.w3.org/2000/svg" p-id="4988" xmlns:xlink="http://www.w3.org/1999/xlink" width="128" height="128"><defs><style type="text/css">@font-face { font-family: element-icons; src: url("chrome-extension://moombeodfomdpjnpocobemoiaemednkg/fonts/element-icons.woff") format("woff"), url("chrome-extension://moombeodfomdpjnpocobemoiaemednkg/fonts/element-icons.ttf ") format("truetype"); }
</style></defs><path d="M949.054901 245.464338c107.972099 176.165004 96.606615 403.474686-28.41371 568.274206s-335.281781 244.357908-534.177753 193.21323c-130.703067-34.096452-244.357908-113.654841-312.550813-232.992424S-17.011248 518.235957 17.085204 387.53289C62.54714 188.636918 227.34666 40.885624 431.925374 6.789172s409.157428 62.510163 517.129527 238.675166z m-409.157428-113.654841h-51.144678v107.972099H358.049727V796.690318h130.703068v90.923873h45.461936V796.690318c39.779194 0 73.875647-5.682742 102.289357-22.730968 22.730968-11.365484 39.779194-28.41371 51.144679-56.827421 11.365484-22.730968 17.048226-51.144679 17.048226-79.558389 0-34.096452-5.682742-56.827421-22.730968-79.558389-22.730968-34.096452-56.827421-51.144679-96.606615-62.510162 17.048226-11.365484 34.096452-22.730968 45.461936-34.096453 34.096452-28.41371 51.144679-68.192905 51.144679-113.654841 0-22.730968-5.682742-39.779194-17.048227-62.510162-11.365484-22.730968-22.730968-34.096452-39.779194-39.779195-22.730968-11.365484-51.144679-17.048226-79.558389-17.048226h-17.048226V131.809497z m-51.144678 403.474686V739.862897H426.242632V535.284183h62.510163z m51.144678 5.682742c11.365484 5.682742 28.41371 11.365484 45.461937 17.048226 22.730968 11.365484 34.096452 22.730968 45.461936 39.779195 11.365484 17.048226 17.048226 34.096452 17.048226 56.82742 0 28.41371-5.682742 45.461936-22.730968 62.510163-11.365484 11.365484-17.048226 17.048226-34.096452 22.730968h-51.144679V540.966925z m-51.144678-250.04065v187.530488H426.242632V290.926275h62.510163z m51.144678 5.682742c28.41371 5.682742 51.144679 11.365484 62.510163 22.730968 11.365484 11.365484 22.730968 28.41371 22.730968 51.144679 0 17.048226-5.682742 34.096452-11.365484 51.144678-11.365484 17.048226-22.730968 34.096452-34.096452 39.779194-17.048226 5.682742-34.096452 11.365484-39.779195 17.048227V296.609017z" fill="#357CE1" p-id="4989"></path></svg>