<?xml version="1.0" standalone="no"?><!DOCTYPE svg PUBLIC "-//W3C//DTD SVG 1.1//EN" "http://www.w3.org/Graphics/SVG/1.1/DTD/svg11.dtd"><svg t="1614869545323" class="icon" viewBox="0 0 1024 1024" version="1.1" xmlns="http://www.w3.org/2000/svg" p-id="3830" xmlns:xlink="http://www.w3.org/1999/xlink" width="128" height="128"><defs><style type="text/css">@font-face { font-family: element-icons; src: url("chrome-extension://moombeodfomdpjnpocobemoiaemednkg/fonts/element-icons.woff") format("woff"), url("chrome-extension://moombeodfomdpjnpocobemoiaemednkg/fonts/element-icons.ttf ") format("truetype"); }
</style></defs><path d="M512 510.17955555m-509.72444445 0a509.72444445 509.72444445 0 1 0 1019.4488889 0 509.72444445 509.72444445 0 1 0-1019.4488889 0Z" fill="#2E9999" p-id="3831"></path><path d="M442.82311111 438.21738667v0.96483555c4.73315555-0.63715555 4.35086222-0.98304 0-0.96483555z" fill="#6CA7B7" p-id="3832"></path><path d="M862.54478222 512C838.05980445 448.28444445 581.17688889 439.18222222 581.17688889 439.18222222v-81.92h192.96711111v-127.43111111H249.856v127.43111111h192.96711111v80.95516445c4.35086222 0 4.73315555 0.32768 0 0.96483555v-0.96483555c-32.42211555 0-285.37287111 19.86104889-282.16888889 79.24394666 3.64088889 67.35644445 282.16888889 78.27911111 282.16888889 78.27911112v271.24622222h138.35377778V595.74044445c316.75733333-20.02488889 281.36789333-83.74044445 281.36789333-83.74044445z m-344.48270222 61.89511111s-249.81959111 1.01944889-314.53639111-47.73205333c0 0-30.83832889-20.46179555 25.04931556-41.87022223 0 0 75.89432889-28.69020445 214.24810666-32.33109333v98.304h138.35377778V451.92533333s240.29866667 9.10222222 243.93955556 60.07466667c0 0 10.92266667 54.61333333-307.05436445 61.89511111z" fill="#FFFFFF" p-id="3833"></path></svg>