<?xml version="1.0" standalone="no"?><!DOCTYPE svg PUBLIC "-//W3C//DTD SVG 1.1//EN" "http://www.w3.org/Graphics/SVG/1.1/DTD/svg11.dtd"><svg t="1616741852159" class="icon" viewBox="0 0 1024 1024" version="1.1" xmlns="http://www.w3.org/2000/svg" p-id="2113" xmlns:xlink="http://www.w3.org/1999/xlink" width="128" height="128"><defs><style type="text/css">@font-face { font-family: element-icons; src: url("chrome-extension://moombeodfomdpjnpocobemoiaemednkg/fonts/element-icons.woff") format("woff"), url("chrome-extension://moombeodfomdpjnpocobemoiaemednkg/fonts/element-icons.ttf ") format("truetype"); }
</style></defs><path d="M949.054901 245.464338c107.972099 176.165004 96.606615 403.474686-28.41371 568.274206s-335.281781 244.357908-534.177753 193.21323c-130.703067-34.096452-244.357908-113.654841-312.550813-232.992424S-17.011248 518.235957 17.085204 387.53289C62.54714 188.636918 227.34666 40.885624 431.925374 6.789172s409.157428 62.510163 517.129527 238.675166z m-244.357908 556.908722H346.684243v56.82742h358.01275v-56.82742z m-28.413711-659.198079h-73.875646v56.827421H500.118279v56.82742h102.289357v102.289357c-28.41371-28.41371-62.510163-45.461936-102.289357-51.144678h-11.365484c-51.144679 0-90.923873 17.048226-119.337584 56.82742S323.953275 455.725794 323.953275 512.553215v22.730968c0 62.510163 17.048226 113.654841 45.461936 153.434036s68.192905 62.510163 119.337584 62.510162c45.461936 0 85.241131-17.048226 113.654841-45.461936l5.682742-5.682742 5.682742 45.461936H681.966025V268.195307h73.875646v-56.827421H681.966025l-5.682743-68.192905z m-170.482261 227.309683c39.779194 0 73.875647 17.048226 96.606615 51.144678l5.682742 11.365484V626.208056c-22.730968 39.779194-56.827421 62.510163-102.289357 62.510163-34.096452 0-62.510163-11.365484-79.558389-39.779195s-28.41371-62.510163-28.41371-113.654841c0-51.144679 11.365484-90.923873 28.41371-119.337583s45.461936-45.461936 79.558389-45.461936z" fill="#635CE8" p-id="2114"></path></svg>