<?xml version="1.0" standalone="no"?><!DOCTYPE svg PUBLIC "-//W3C//DTD SVG 1.1//EN" "http://www.w3.org/Graphics/SVG/1.1/DTD/svg11.dtd"><svg t="1618156720795" class="icon" viewBox="0 0 1024 1024" version="1.1" xmlns="http://www.w3.org/2000/svg" p-id="2189" xmlns:xlink="http://www.w3.org/1999/xlink" width="128" height="128"><defs><style type="text/css">@font-face { font-family: element-icons; src: url("chrome-extension://moombeodfomdpjnpocobemoiaemednkg/fonts/element-icons.woff") format("woff"), url("chrome-extension://moombeodfomdpjnpocobemoiaemednkg/fonts/element-icons.ttf ") format("truetype"); }
</style></defs><path d="M949.054901 245.464338c107.972099 176.165004 96.606615 403.474686-28.41371 568.274206s-335.281781 244.357908-534.177753 193.21323c-130.703067-34.096452-244.357908-113.654841-312.550813-232.992424S-17.011248 518.235957 17.085204 387.53289C62.54714 188.636918 227.34666 40.885624 431.925374 6.789172s409.157428 62.510163 517.129527 238.675166z m-681.929047 85.241131H142.105529V739.862897h56.827421V563.697893h56.82742l113.654841 176.165004h73.875647L306.905049 546.649667c56.827421-22.730968 85.241131-62.510163 85.241131-119.337583 0-34.096452-11.365484-56.827421-34.096453-73.875647-22.730968-11.365484-45.461936-22.730968-79.558388-22.730968h-11.365485z m312.550814 0H500.118279V739.862897h51.144678V404.581116l107.972099 306.868071h56.827421l113.654841-306.868071V739.862897h56.827421V330.705469h-73.875647l-119.337583 318.233555-113.654841-318.233555z m-340.964524 39.779195c62.510163 0 90.923873 22.730968 90.923873 62.510162 0 56.827421-34.096452 85.241131-107.972099 85.241131h-22.730968V370.484664h39.779194z" fill="#A452EC" p-id="2190"></path></svg>